<?xml version="1.0" encoding="utf-8"?>
<!-- Generator: Adobe Illustrator 24.2.0, SVG Export Plug-In . SVG Version: 6.00 Build 0)  -->
<svg version="1.1" id="Layer_1" xmlns="http://www.w3.org/2000/svg" xmlns:xlink="http://www.w3.org/1999/xlink" x="0px" y="0px"
	 viewBox="0 0 1080 1080" style="enable-background:new 0 0 1080 1080;" xml:space="preserve">
<style type="text/css">
	.st0{fill:#2B34D8;}
	.st1{fill:none;stroke:#000000;stroke-width:2;stroke-miterlimit:10;}
	.st2{fill:#E10000;stroke:#0000FF;stroke-width:2;stroke-miterlimit:10;}
	.st3{fill:#FFFFFF;}
	.st4{fill:#FFFFFF;stroke:#000000;stroke-width:2;stroke-miterlimit:10;}
	.st5{fill:#BD0029;}
	.st6{font-family:'Roboto-Bold';}
	.st7{font-size:79.9239px;}
	.st8{font-size:53px;}
</style>
<g>
	<g>
		<path d="M168.6,429.39l-62.15-23.81l7.32-19.12c2.09-5.46,5.2-9.88,9.31-13.25c4.11-3.37,8.9-5.39,14.37-6.07
			c5.47-0.68,11.09,0.09,16.86,2.3l2.86,1.1c5.78,2.21,10.46,5.37,14.04,9.47c3.59,4.1,5.79,8.78,6.61,14.06
			c0.82,5.27,0.2,10.63-1.85,16.08L168.6,429.39z M121.73,396.75l41.49,15.89l2.37-6.19c1.92-5.01,1.75-9.46-0.51-13.36
			c-2.26-3.9-6.42-7.04-12.49-9.43l-3.29-1.26c-6.32-2.42-11.61-2.94-15.87-1.57c-4.26,1.37-7.36,4.57-9.29,9.61L121.73,396.75z"/>
		<path d="M216.15,329.55l-6.81,11.9l-24.76-14.16l-13.27,23.21l24.76,14.16l-6.81,11.9l-57.77-33.04l6.81-11.9l23.41,13.39
			l13.27-23.21l-23.41-13.39l6.81-11.9L216.15,329.55z"/>
		<path d="M233.93,284.64l-15.06,18.74l7.83,12.15l-9.13,11.37l-36.37-61l7.96-9.91l67.49,22.26l-9.13,11.37L233.93,284.64z
			 M212.53,293.54l10.42-12.97l-24.66-9.08L212.53,293.54z"/>
		<path d="M258.48,277.03l-45.16-48.89l15.04-13.89c4.3-3.97,9.04-6.55,14.22-7.75c5.18-1.2,10.37-0.89,15.57,0.92
			c5.2,1.81,9.9,4.99,14.1,9.53l2.08,2.25c4.2,4.54,7,9.45,8.39,14.71c1.4,5.26,1.3,10.44-0.31,15.53
			c-1.6,5.09-4.53,9.62-8.79,13.59L258.48,277.03z M230.93,227l30.15,32.64l4.87-4.5c3.94-3.64,5.76-7.71,5.46-12.2
			c-0.3-4.5-2.64-9.16-7.02-13.99l-2.39-2.59c-4.59-4.97-9.1-7.78-13.53-8.44c-4.43-0.66-8.62,0.84-12.58,4.5L230.93,227z"/>
		<path d="M313.17,230.36l-10.99,8.21l-39.83-53.32l10.99-8.21L313.17,230.36z"/>
		<path d="M366.9,196.95l-11.83,6.94l-45.18-24.27l22.15,37.77l-11.83,6.94l-33.66-57.41l11.83-6.94l45.26,24.33l-22.2-37.85
			l11.79-6.91L366.9,196.95z"/>
		<path d="M419.87,166.61c-1.22,3.65-3.63,7.06-7.24,10.22c-3.61,3.16-7.96,5.74-13.07,7.74c-5.36,2.1-10.52,2.77-15.48,2.01
			c-4.96-0.76-9.41-2.93-13.36-6.53c-3.94-3.59-7.12-8.39-9.53-14.38l-1.65-4.21c-2.42-6.18-3.48-11.95-3.16-17.29
			c0.31-5.34,1.96-9.98,4.96-13.92c2.99-3.94,7.12-6.94,12.4-9.01c7.35-2.88,13.78-3.38,19.3-1.49c5.52,1.88,9.97,6.02,13.36,12.42
			l-12.43,4.87c-1.96-3.32-4.23-5.43-6.82-6.31c-2.59-0.88-5.58-0.66-8.99,0.67c-4.34,1.7-7.01,4.63-8,8.78
			c-0.99,4.15-0.24,9.45,2.25,15.91l1.55,3.96c2.55,6.5,5.7,10.92,9.47,13.28c3.77,2.35,8.04,2.6,12.8,0.73
			c4.8-1.88,7.81-4.24,9.06-7.08l-4.18-10.68l-11.62,4.55l-3.68-9.41l24.39-9.55L419.87,166.61z"/>
		<path d="M480.79,144.2c-0.45-2.55-1.69-4.35-3.73-5.41c-2.04-1.05-5.53-1.93-10.48-2.63c-4.95-0.7-8.92-1.55-11.9-2.54
			c-8.15-2.72-12.81-7.49-14-14.31c-0.62-3.54-0.17-6.88,1.34-10c1.51-3.12,4-5.79,7.47-8.01c3.46-2.21,7.52-3.72,12.18-4.54
			c4.68-0.82,9-0.7,12.96,0.36c3.96,1.06,7.22,2.96,9.79,5.69c2.57,2.74,4.19,6.07,4.88,10.01l-13.51,2.36
			c-0.52-3-1.88-5.17-4.06-6.51c-2.18-1.34-4.98-1.71-8.41-1.11c-3.3,0.58-5.75,1.72-7.33,3.44c-1.59,1.72-2.18,3.71-1.79,6
			c0.37,2.13,1.76,3.73,4.15,4.8c2.4,1.07,5.79,1.87,10.19,2.4c8.09,0.97,14.19,2.86,18.3,5.67c4.11,2.81,6.61,6.77,7.5,11.87
			c0.99,5.67-0.38,10.5-4.11,14.47c-3.73,3.98-9.23,6.6-16.49,7.86c-5.04,0.88-9.8,0.76-14.26-0.37c-4.46-1.12-8.07-3.1-10.8-5.93
			c-2.74-2.83-4.47-6.37-5.21-10.6l13.55-2.36c1.26,7.23,6.22,10.1,14.86,8.59c3.21-0.56,5.6-1.65,7.18-3.27
			C480.61,148.52,481.19,146.54,480.79,144.2z"/>
		<path d="M539.76,143.74l-24.03,0.68l-4.18,13.84l-14.58,0.41l22.88-67.23l12.7-0.36l26.78,65.82l-14.58,0.41L539.76,143.74z
			 M519.11,133.22l16.63-0.47l-9.07-24.66L519.11,133.22z"/>
		<path d="M588.53,93.4l9.93,50.23l23.81-45.3l17.82,2.61l-9.63,65.85l-13.61-1.99l2.63-18l5.9-30.87l-24.95,46.47l-9.32-1.36
			l-10.56-51.62l-3.18,31.22l-2.63,18l-13.57-1.98l9.63-65.85L588.53,93.4z"/>
		<path d="M678.34,168.48l-22.79-7.65l-8.69,11.55l-13.83-4.64l44.65-55.22l12.05,4.04l2.46,71.02l-13.82-4.64L678.34,168.48z
			 M662.58,151.48l15.77,5.29l-0.01-26.28L662.58,151.48z"/>
		<path d="M747.69,141.59l12.27,6.12l-20.57,41.23c-1.89,3.79-4.4,6.72-7.53,8.79c-3.13,2.07-6.61,3.13-10.45,3.19
			c-3.84,0.06-7.69-0.87-11.53-2.79c-6.3-3.14-10.41-7.19-12.33-12.15c-1.92-4.96-1.42-10.37,1.51-16.23l12.35,6.16
			c-1.46,2.92-1.92,5.38-1.38,7.38c0.53,2,2.12,3.66,4.77,4.98c2.34,1.17,4.61,1.3,6.81,0.38c2.19-0.91,4.03-2.86,5.51-5.83
			L747.69,141.59z"/>
		<path d="M816.01,185.07l10.99,8.2l-27.57,36.92c-2.54,3.39-5.52,5.83-8.97,7.31c-3.44,1.48-7.06,1.91-10.85,1.28
			c-3.79-0.63-7.41-2.22-10.85-4.79c-5.64-4.21-8.96-8.93-9.97-14.15c-1.01-5.22,0.45-10.46,4.37-15.71l11.06,8.26
			c-1.95,2.61-2.84,4.95-2.67,7.02c0.17,2.07,1.44,3.98,3.81,5.75c2.1,1.57,4.31,2.1,6.63,1.59c2.32-0.51,4.48-2.1,6.46-4.76
			L816.01,185.07z"/>
		<path d="M829.03,267.36l-17.15-16.85l-12.87,6.58l-10.4-10.22l64.32-30.11l9.06,8.91l-28.88,64.93l-10.4-10.22L829.03,267.36z
			 M822.31,245.18l11.87,11.66l11.49-23.63L822.31,245.18z"/>
		<path d="M861.12,289.36l-18.72,14.13l-8.26-10.95l53.12-40.09l15.64,20.72c3.01,3.99,4.93,8.05,5.75,12.18
			c0.83,4.13,0.51,8.02-0.95,11.68c-1.46,3.66-3.9,6.78-7.33,9.37c-5.21,3.93-10.65,5.24-16.35,3.95
			c-5.69-1.3-10.92-5.09-15.67-11.39L861.12,289.36z M869.98,282.67l7.38,9.78c2.19,2.89,4.53,4.59,7.04,5.08
			c2.51,0.49,5.03-0.22,7.56-2.13c2.6-1.96,4.13-4.32,4.58-7.06c0.45-2.74-0.32-5.48-2.31-8.22l-7.57-10.03L869.98,282.67z"/>
		<path d="M893.94,357.02l-11.91-20.88l-14.18,2.82l-7.23-12.67l70.08-11.46l6.3,11.04l-45.46,54.62l-7.23-12.67L893.94,357.02z
			 M893.51,333.85l8.24,14.45l17.49-19.61L893.51,333.85z"/>
		<path d="M911.31,433.1l-4.86-12.82l31.49-40.48L897,395.32l-4.86-12.82l62.23-23.58l4.86,12.82l-31.56,40.55l41.03-15.55
			l4.84,12.78L911.31,433.1z"/>
	</g>
	<g>
		<path class="st0" d="M614.78,345.34l-1.51-0.81l-3.74,0.81h-3.84l-3.33-0.4l-7.47,3.03l-5.66,3.94l-4.85,2.83l-3.53,3.84
			l-0.4,2.42l-1.21,2.02l-2.83,3.53l-0.71,1.11l2.63,3.53l0.3,2.32l-1.41,2.83l-0.81,2.02l-0.71,3.53l-1.11,4.34
			c0,0-2.32,2.02-3.43,2.32s-7.78,1.92-7.78,1.92s-3.23,0.71-3.23,2.02c0,1.31,0.81,1.82,0.81,1.82s-0.5,1.01-0.81,2.02
			c-0.3,1.01-0.91,1.51-0.91,1.51l-3.94-1.11c0,0-3.89,2.98-4.34,4.8c-0.45,1.82-2.95,4.7-4.24,4.77s-4.24,2.5-4.39,4.01
			c-0.15,1.51-0.61,3.41,0,3.86s1.29,1.06,1.44,1.74s0.61,0.98,1.36,2.5c0.76,1.51,1.67,4.17,2.04,4.47s0.98,1.29-0.61,2.04
			c-1.59,0.76-3.79,4.62-3.79,4.62s0.76,1.21,0.61,1.97c-0.15,0.76-1.37,0.45-1.37,1.97c0,1.51-0.75,2.58-0.75,3.64
			s-1.06,2.42-1.21,3.18s0.76,2.27,0,2.88c-0.76,0.61-1.51,3.18-1.51,3.18s2.27,3.33,2.27,3.94s-0.76,0.76-0.76,2.12
			c0,1.36-0.45,2.73-0.45,2.73s-1.21-0.45-1.67,0c-0.45,0.45-4.09,0.91-4.09,0.91s-2.12-0.91-3.33-0.76
			c-1.21,0.15-3.64,0.76-3.64,0.76s-1.51-1.97-1.82-1.06c-0.3,0.91-2.42,3.94-2.42,3.94s-0.91,4.7-1.06,5.76
			c-0.15,1.06-1.82,3.18-8.79,0.91c0,0-3.33,0.3-5.6,2.27s-4.7-5.3-6.66-5.3s-4.09-1.97-4.09-1.97l-1.36-1.67l-2.42-0.3l-3.18,0.45
			l-1.82-1.21l-2.42,2.58c0,0-4.09,0.91-4.24,1.67c-0.15,0.76-0.15,3.03-1.97,3.94c0,0,0.15,3.79,0,4.54
			c-0.15,0.76-1.97,3.48-2.73,3.94c-0.76,0.45-0.61,3.94-1.21,4.7c-0.61,0.76-2.12,7.12-2.73,7.27c-0.61,0.15-2.27,2.12-1.82,2.42
			c0.45,0.3,0.91,1.06-1.21,3.79c0,0,0.61,1.97,0,2.73c-0.61,0.76-5.45,5-4.39,6.36c1.06,1.36,3.94,1.51,2.27,4.39
			c0,0,0.76,1.06,0.61,1.67c-0.15,0.61-1.21,1.06-1.36,2.27c-0.15,1.21,0,3.64,0.91,4.24s1.21,3.7-6.51,4.05
			c0,0-1.36,0.65-1.67,1.41s-2.73-1.21-3.33,0s0.45,3.33-0.91,4.54c-1.36,1.21-0.61,2.88-4.09,4.09c0,0-0.76,0.91-1.21,1.82
			c-0.45,0.91-3.33-1.51-2.88,0c0.45,1.51,0.45,1.51,0.45,1.51s2.88,0.45,1.36,1.51c-1.51,1.06-3.03,2.42-6.21,2.12
			c-3.18-0.3-0.76,0.04-0.76,0.04s-1.06,1.17-3.18,2.08c-2.12,0.91-3.64,1.36-4.24,1.36s0.3,2.12,0,3.48s-3.79,3.03-2.73,7.27
			c0,0-0.15,1.82-2.58,2.73c-2.42,0.91,1.21,1.97,1.21,1.97s-1.51,1.51-2.88,1.67c0,0,1.21,2.27,0.76,4.09c0,0,1.21,0,0.15,5
			c0,0,1.06,3.48,2.27,4.7c1.21,1.21-1.21,1.51-0.76,2.73c0.45,1.21,4.54,1.36,5.45,3.03c0.91,1.67,1.51,0,1.51,0s-4.24,1.21,1.82,5
			c0,0,1.97,2.27,1.97,3.03s-1.51,4.24,5.45,5.15s0.3,0.91,0.3,0.91s-1.97,0.76,1.21,2.58c0,0-0.76,3.03,0,3.64
			c0.76,0.61,1.51,2.42,4.24,4.09c0,0-2.27,8.33,4.24,9.85c0,0-1.11,0.91-2.63,2.02c-1.51,1.11-1.41,2.52-4.85,0
			c0,0,1.72-2.02-1.31-2.52l-0.81-0.91l-3.64,2.42c0,0-0.2,1.01-0.5,2.42s-2.22,2.43-3.64,2.12c-1.41-0.3-2.93,0.61-4.54,0.61
			c-1.62,0-1.21,3.03-1.21,3.03s-1.51,1.11-3.03,1.41c-1.51,0.3-1.31-2.32-2.47-2.32s-3.38-0.71-3.99-1.51
			c-0.61-0.81-1.72,2.12-3.13,1.62c-1.41-0.5-2.73,0.4-2.58-3c0,0-10.38-0.53-11.13-1.36s-2.42,0.08-4.85-2.65c0,0-3.33,0-4.85-0.76
			c-1.51-0.76-0.45-3.94-1.74-3.48c-1.29,0.45-2.58,0.53-4.77,0.91c-2.2,0.38-2.58,0.53-5.15,0.3c-2.58-0.23-5.6,1.06-5.6,1.06
			s-5.07,2.04-6.74,2.65c0,0-0.61,1.29-1.14,1.97c-0.53,0.68-1.36,2.5,1.82,0.83c0,0,1.14,0.61,1.97,0.91
			c0.83,0.3,1.97,1.29,3.11,0.83c1.14-0.45,5.38,1.51,6.13,2.65s0.38-0.15,0.38-0.15s1.44,3.56-2.2,3.48s-1.36,2.12-1.36,2.12
			s0.23,1.97-0.08,2.65s0.83,0.91,0.83,0.91s0.53-0.98,2.35-0.83c1.82,0.15,1.67,2.12,4.24,3.18c2.58,1.06,3.94-1.06,5-0.61
			s4.92,0.68,2.35,2.42c-2.58,1.74-0.45,0.91-0.45,0.91s-0.61,1.51-1.14,2.2s-0.08,1.59,1.36,1.06s0.91-1.14,3.94,0.53
			c0,0,3.48,0.08,3.64,1.67c0.15,1.59,0.08,4.17-0.83,4.47c-0.91,0.3-2.5,4.62-2.5,4.62s-1.72,0.5-1.41,1.31s0,3.74,2.73,3.53
			c2.73-0.2,3.23,0.71,3.23,0.71s0.81,1.72,2.83,1.62c2.02-0.1,2.42,2.42,3.03,2.12c0.61-0.3,1.01-2.02,3.23-2.63s7.47-0.2,9.09-0.5
			c1.62-0.3,3.64-2.52,5.25-1.41c1.62,1.11,1.11,1.82,3.23,0.1c2.12-1.72,1.92-2.52,7.37-2.52c5.45,0,5.45,0,5.45,0
			s1.21,2.22,4.54,3.64c3.33,1.41,8.79,3.43,10.7,4.65c1.92,1.21,5.86,2.22,5.45,3.64c-0.4,1.41-3.03,7.37-4.34,8.08
			c-1.31,0.71,3.64,3.33,3.64,3.33s1.72,3.13,1.62,5.05c-0.1,1.92,1.11,2.02,1.11,2.02s5.05-3.74,5.35-4.24s0.81,0.1,1.62-0.1
			c0.81-0.2,0.81-1.41,1.31-1.51c0.5-0.1,1.31,0.3,1.72-0.2c0.4-0.5,0.1-1.31,0.61-1.41c0.5-0.1,0.5,0.5,1.31-0.61
			c0.81-1.11,0.91-1.82,1.72-1.92c0.81-0.1,2.52-0.61,5.35-0.1c2.83,0.5,17.37,6.06,17.37,6.06s2.63,2.93,3.84,3.43
			c1.21,0.5,4.75-1.41,4.75-1.41s1.82-4.04,2.73-4.75c0.91-0.71,3.03-2.02,3.03-2.02l-0.91-1.31c0,0,3.33-3.94,4.95-4.04
			c1.62-0.1,1.82-0.61,1.82-0.61s3.23,1.82,3.64,1.92c0.4,0.1,2.52,0.81,2.52,0.81s0.91,2.32,1.82,2.32c0.91,0,9.39-0.61,11.61,0
			c2.22,0.61,0.1,0.4,2.22,0.61s1.31-0.2,4.44-1.51c3.13-1.31,5.25-1.51,6.97-2.22c1.72-0.71,1.51-1.82,2.22-3.13
			c0.71-1.31-1.72-0.5,0.71-1.31s2.73-0.81,3.84-1.01c1.11-0.2,0.81,1.72,1.11-0.2c0.3-1.92-2.83-3.03,1.01-2.42
			c3.84,0.61,7.67,1.82,7.67,1.82s-0.3-1.82,2.22-1.51c2.52,0.3,2.63-0.3,3.74,0.81c1.11,1.11,4.95,0.91,5.55,1.92
			c0.61,1.01,0.4,2.02,1.31,1.72c0.91-0.3,1.72-2.12,2.12-2.52c0.4-0.4,0.3-0.1,1.51-0.4c1.21-0.3,2.22-1.31,2.52-0.1
			c0.3,1.21-0.3,5.35,0.2,5.96c0.5,0.61,4.65-4.04,6.16-3.84c1.51,0.2,1.01,2.52,2.22,2.22s2.63-0.61,2.83-1.31
			c0.2-0.71-1.11-2.22,0.3-2.93c1.41-0.71,3.94-3.03,5.55-3.03s4.14,2.22,4.65,0.71c0.5-1.51,3.03-2.83,4.54-2.32
			c1.51,0.5,2.93,2.02,4.54,3.13c1.62,1.11,3.03,0.81,4.95,1.82s2.83,2.52,3.43,4.44c0.61,1.92,1.62,3.94,2.02,3.84
			c0.4-0.1,4.34,0.81,4.95,1.11c0.61,0.3-0.71,2.22,1.51,2.42c2.22,0.2,3.13,1.31,5.15,1.82c2.02,0.5,3.13,1.01,4.34,0.1
			s2.52-1.41,3.74-0.81s1.01,1.41,2.12,0.91c1.11-0.5-1.01-1.72,2.93-2.83s-0.1-1.31,2.93-1.62c3.03-0.3,4.24-0.81,6.16-0.81
			s0.91,1.72,1.92-1.01c1.01-2.73,1.31-4.54,1.62-5.35c0.3-0.81-0.4,1.41,0-2.02c0.4-3.43,0.3-4.24,0.91-4.85s-0.4-0.81,0.61-0.61
			s0.61,0.91,1.01-0.3s0.81-0.81,0-2.02c-0.81-1.21-2.02,0.2-0.61-1.62s-0.81-2.52,1.41-1.82s0.4,3.13,2.22,0.71
			c1.82-2.42-3.13-1.01,1.72-1.72c4.85-0.71,1.51,1.21,3.23,0c1.72-1.21,3.64-2.02,3.03-3.74c-0.61-1.72-1.82-1.62-2.83-2.42
			c-1.01-0.81-2.73-0.61-1.01-0.81c1.72-0.2,2.64,0.07,2.64,0.07s0.48,0.01,0.66-0.13c0.18-0.14,5.29-2.23,6.16-2.35
			c0.87-0.11,0.68-0.08,1.29-0.11c0.61-0.04,0.45-0.19,0.49-1.17c0.04-0.98-1.06-0.57,0.57-1.82c1.63-1.25,1.63-2.39,2.42-2.5
			c0.8-0.11-0.15-0.49,2.54-0.11c2.69,0.38,2.35,0.98,4.7,0.76c2.35-0.23,1.25,1.02,2.92-0.68c1.67-1.7,0.83-1.63,2.31-2.23
			c1.48-0.61,1.86,0.45,1.55-1.44c-0.3-1.89,0.91-1.86-1.21-2.58c-2.12-0.72-3.33-0.08-2.95-1.51c0.38-1.44,0.91-1.89,0.8-2.23
			c-0.11-0.34-2.8-0.49-3.11-0.49c-0.3,0-3.6-1.1-4.66-0.8c-1.06,0.3,0.61-0.91-3.03-0.15c-3.64,0.76-4.24,1.36-5,1.51
			s-2.42-0.15-2.42-0.76s3.48,0.61-0.76,0.15c-4.24-0.45-3.18-2.58-6.66-0.61c-3.48,1.97-1.67,2.88-5.15,2.73
			c-3.48-0.15-4.7-0.91-6.66-0.76c-1.97,0.15-0.76,0.3-4.54,0.15c-3.79-0.15-1.21,0.61-3.94,1.97s-2.58,1.06-6.51,0.91
			s-4.85-0.15-6.21,0.76c-1.36,0.91-1.21,1.36-3.64,0.61s-1.06-1.51-4.09-0.15c-3.03,1.36-2.88,1.36-3.94,0.76
			c-1.06-0.61-3.18-1.21-4.54-2.27c-1.36-1.06-2.27-1.06-2.27-1.97c0-0.91,1.82-1.36-1.51-1.51s-1.67,1.06-4.85,0
			c-3.18-1.06-2.73-2.12-8.63-4.85s-10.3-3.03-13.18-3.03s-0.91-1.21-5.15-3.03c-4.24-1.82-2.58-1.67-2.27-3.03
			c0.3-1.36,2.58-2.73,0.15-3.03c-2.42-0.3-1.36-1.06-2.42-0.3c-1.06,0.76-0.76,0.45-1.21-0.76c-0.45-1.21,1.82-1.51-1.51-0.76
			s-5.76-0.61-6.82,0.3c-1.06,0.91,0.3,0.3-2.58,1.51c-2.88,1.21,0.45,2.12-1.21,1.67c-1.67-0.45-2.88-0.3-1.67-2.88
			s1.36-1.97,2.12-4.24c0.76-2.27,3.64-4.39,1.97-4.39c-1.67,0-4.7,0.61-4.7,0.61s-0.61-1.06-1.82-2.27s-3.94,1.36-3.03-1.36
			c0.91-2.73,0-2.27,0.76-4.24s-1.51-1.97-3.33-3.03c-1.82-1.06,0.76-1.36-1.82-1.06c-2.58,0.3-3.33,0-3.33-1.82s1.82-4.7,2.27-6.36
			c0.45-1.67,0.76-1.97-0.3-3.18c-1.06-1.21-2.58,0.61-1.36-2.88s0.45-3.94,1.51-5.3s0.15,2.58,2.12-2.58s0.61-2.73,2.88-7.42
			c2.27-4.7,3.03-3.33,2.42-6.06s-3.18-0.61-1.06-3.94c2.12-3.33,2.73-3.18,3.33-4.85c0.61-1.67,2.88-3.64-0.61-2.27
			s-4.54,2.88-2.73-0.15c1.82-3.03,2.12-6.06,3.48-6.51s0.91-0.45,2.88-1.36s1.67,2.12,2.73-1.97c1.06-4.09,1.06-4.09,1.51-6.97
			c0.45-2.88,0-4.18-0.91-4.44c-0.91-0.26-5.45-0.41-7.57-1.02s-2.73-2.58-4.54-1.51s-2.12-0.45-2.42-1.67
			c-0.3-1.21,0.45-0.91-3.48-3.64s-4.7-3.18-4.24-6.06c0.45-2.88,0.76-2.12,0.76-2.12s4.54,3.64,13.94-0.76c0,0,5.91-1.21,6.97-1.67
			c1.06-0.45,3.48-3.33,4.54-3.48c1.06-0.15,6.06-4.54,6.66-5.15s2.27-4.54,3.03-6.21s2.27-3.64,2.27-3.64l5.15,0.91
			c0,0,0.91,1.51,4.09-0.61c3.18-2.12,3.64-2.88,6.66-2.88c3.03,0,5.15-2.12,5.15-2.12l3.64,0.3c0,0,1.36-0.45,2.12-2.58
			c0.76-2.12,0.76-0.3,2.27-3.79c1.51-3.48-0.15-5.91,1.97-8.03c2.12-2.12,2.88-1.36,6.06-3.18c3.18-1.82,4.24,0.45,6.51-3.48
			c2.27-3.94,3.79-5.76,3.79-6.36s-2.88-1.97-1.67-4.24c1.21-2.27,4.09-4.85,6.06-6.97c1.97-2.12-0.45-2.88,2.88-4.54
			s3.33-2.12,7.73-2.73c4.39-0.61,5.76-5.45,5.3-7.57c-0.45-2.12,1.21-5.91,1.82-8.63c0.61-2.73-3.94-7.57-7.57-8.94
			c-3.64-1.36-0.76-2.58-0.15-3.79s-0.45-1.51,0.91-2.73c1.36-1.21,1.21-1.06,1.21-3.48c0-2.42-1.51-3.03,1.82-4.39
			s1.97-5-1.06-6.06s-5.76-7.12-7.12-7.57s-2.57-0.91-5,1.97s-8.64-3.33-8.33-4.39c0.3-1.06-4.85-9.39-10.45-9.24
			c0,0-4.54-3.18-5.91-7.27c-1.36-4.09-3.48-4.24-3.79-5c-0.3-0.76-0.15-5.76-0.15-5.76L614.78,345.34z"/>
		<g>
			<g>
				<line class="st1" x1="534.52" y1="618.55" x2="458.44" y2="432.62"/>
				<polygon class="st2" points="446.58,514.79 370.93,540.29 458.69,428.76 513.16,570.99 402.49,612.06 				"/>
				<path class="st3" d="M461.76,484.72l-1.4-0.01l1.99-3.94l-4.09,1.67l0.33-4.4l-3.14,3.11l-1.38-4.19l-1.71,4.07l-2.88-3.35
					l-0.02,4.42l-3.94-1.99l1.67,4.09l-4.4-0.33l3.11,3.14l-4.19,1.38l4.07,1.71l-1.06,0.91c-3.85-1.3-6.75-3.33-6.75-3.33
					c2.73,7.39,10.93,11.17,18.32,8.45s11.17-10.93,8.45-18.32C464.73,477.8,463.85,481.23,461.76,484.72z"/>
				<polygon class="st3" points="472.9,535.5 475.59,540.34 478.72,535.77 479.35,541.27 483.99,538.26 482.47,543.58 
					487.91,542.56 484.46,546.9 489.88,548.05 485.04,550.73 489.6,553.86 484.1,554.49 487.12,559.13 481.8,557.61 482.81,563.05 
					478.48,559.61 477.33,565.02 474.65,560.18 471.51,564.75 470.88,559.25 466.24,562.26 467.77,556.94 462.33,557.95 
					465.77,553.62 460.35,552.47 465.19,549.79 460.63,546.66 466.13,546.03 463.11,541.39 468.43,542.91 467.42,537.47 
					471.75,540.91 				"/>
			</g>
			<g>
				<line class="st1" x1="497.09" y1="619.22" x2="573.18" y2="433.29"/>
				<polygon class="st4" points="527.7,545.34 573.1,435.11 709.07,484.15 663.79,592.65 				"/>
				<circle class="st5" cx="618.38" cy="513.88" r="21.93"/>
			</g>
		</g>
	</g>
	<text transform="matrix(1 0 0 1 525.3757 411.1771)" class="st6 st7"> </text>
	<g>
		<g>
			<path class="st0" d="M531.95,989.19c-4.65-56.89-23.93-141.33-94-183.51c-111.45-67.1-130.79-117.77-175.77-161.75
				c-32.35-15.16-28.31,27.29-24.77,34.88c3.54,7.58,50.55,81.06,41.45,101.44c-5.22,11.7-18.64,11.39-29.29,8.68
				c-11.88-3.03-24.71-8.45-34.32-16.12c-1.33-1.06-2.62-2.17-3.88-3.32c-9.36-8.54-16.63-19.2-22.45-30.4
				c-9.46-18.21-15.31-38.18-19.33-58.23c-6.25-31.2-8.14-63.21-8.06-94.98c0.01-2.55,0.06-5.11,0.06-7.66
				c0-0.01,0-49.54-11.12-72.28c-11.12-22.75-31.34,2.53-33.36,12.64c-2.02,10.11-39.43,224.93,51.05,316.92
				c82.99,84.38,195.13,80.19,211.06,152.25"/>
			<path class="st0" d="M538.94,989.19c4.65-56.89,23.93-141.33,94-183.51c111.45-67.1,130.79-117.77,175.77-161.75
				c32.35-15.16,28.31,27.29,24.77,34.88c-3.54,7.58-50.55,81.06-41.45,101.44c5.22,11.7,18.64,11.39,29.29,8.68
				c11.88-3.03,24.71-8.45,34.32-16.12c1.33-1.06,2.62-2.17,3.88-3.32c9.36-8.54,16.63-19.2,22.45-30.4
				c9.46-18.21,15.31-38.18,19.33-58.23c6.25-31.2,8.14-63.21,8.06-94.98c-0.01-2.55-0.06-5.11-0.06-7.66
				c0-0.01,0-49.54,11.12-72.28c11.12-22.75,31.34,2.53,33.36,12.64s39.43,224.93-51.05,316.92
				c-83.53,84.94-196.62,80.13-211.36,153.69"/>
		</g>
		<text transform="matrix(1 0 0 1 402.3411 766.9369)" class="st6 st8">ESTD:2013</text>
	</g>
	<g>
		<path d="M793.5,370.3c-0.6-0.91-1.22-1.81-1.83-2.72l0.08-0.18l-1.39-1.76c-34.52-50.46-82.53-89.08-139.17-111.88l-2.24,5.57
			c2.41,0.97,4.8,1.98,7.19,3.01l31.48,16.03l-3.99,7.84l-20.12-10.24l-0.56,0.31l-0.32,5.13c6.09,4.1,6.14,7.91,5.13,9.89
			c-2.3,4.51-7.5,4.66-10.47,3.14c-5.27-2.68-7.62-10.31-6.53-23.61l-3.28,0.08l-0.16,0.32c-1.47,16.5,1.98,25.89,9.38,29.66
			c4.67,2.38,10.62,0.97,13.22-4.14c1.33-2.61,1.85-6.19,1.33-10.94l9.98,5.08l-11.87,22.92l3.83,3.45l0.62-0.23l18.23-36.21
			c2.73,1.64,5.44,3.32,8.11,5.05l-0.05,0.34l5.22,3.55l-22.52,32.88l3.37,3.9l0.64-0.15l22.73-33.76l6.65,4.52l0.13-0.05
			c1.79,1.33,3.56,2.68,5.32,4.05c-2.4,2.66-4.88,5.6-7.18,8.33c-4.15,4.93-5.26,8.47-4.93,11.88c0.44,4.31,2.2,7.95,4.96,10.26
			c2.28,1.92,4.83,2.96,7.89,2.98l-9.57,11.11l2.99,4.25l0.65-0.09l25.84-31.08c3.72,3.48,7.36,7.06,10.91,10.73l-28.6,27.54
			l2.51,4.5l0.66-0.02l28.95-28.31c8.42,9.03,16.31,18.61,23.65,28.71l-9.09,7.16c-2.59-4.07-5.11-7.85-7.64-11.06
			c-1.98-2.51-4.1-4.63-6.42-5.86c-2.09-1.07-3.84-0.99-5.06-0.03c-3.07,2.42-4.1,10.59-2.87,12.16c0.8,1.01,1.85,1.48,3.17,1.29
			c0.58-0.12,1.74-0.81,3.28-2.02l2.65-2.09c1.61,1.11,3.39,2.93,5.2,5.24c1.46,1.85,2.67,3.61,3.82,5.42L749.56,386l2.06,4.77
			l0.66,0.05l31.06-24.75c1.74,2.49,3.46,4.99,5.14,7.54L793.5,370.3z M729.62,326.02c-1.92,2.28-3.6,2.9-6.29,3.07
			c-2.87-0.04-5.43-0.79-7.57-2.59c-3.54-2.97-2.79-6.76,2.07-12.54c2.66-3.16,5.32-6.26,8.05-9.37l11.52,9.69
			c0.4,0.36,0.8,0.72,1.19,1.08L729.62,326.02z"/>
		<polygon points="410.54,276.69 414.15,277.77 415.21,274.23 411.73,273.18 		"/>
		<path d="M416.3,291.55c0.28-1.04,0.41-1.69,0.41-1.96c0.09-1,0.03-1.83-0.17-2.48c-0.2-0.65-0.43-1.21-0.69-1.7
			c-0.71-1.34-1.65-2.32-2.83-2.93c-1.18-0.61-2.62-1.04-4.32-1.28c-1.7-0.24-3.03-0.22-3.99,0.04c-0.96,0.26-2.27,0.83-3.93,1.71
			c-0.64,0.34-1.35,1.02-2.12,2.04c-0.77,1.02-1.44,1.69-2.04,2c-2.04,1.07-3.57,1.1-4.58,0.09c-1.01-1.01-1.62-1.7-1.81-2.08
			c-0.28-0.54-0.39-0.98-0.33-1.32c0.06-0.34,0.67-0.85,1.82-1.52c1.15-0.67,2.35-1.34,3.58-1.99l11.76-6.18l-3.05-5.8l0.22-0.12
			c2.84-1.39,5.7-2.73,8.58-4.03l-2.46-5.47c-21.73,9.78-42.27,22.11-61.16,36.63c-0.36-0.28-0.67-0.51-0.92-0.66
			c-0.41-0.24-1.26-0.73-2.55-1.46c-1.28-0.73-2.42-1.27-3.41-1.61c-0.99-0.35-2.2-0.69-3.64-1.05c-2.08-0.44-4.09-0.62-6.03-0.53
			c-1.94,0.09-3.26,0.19-3.96,0.32c-1.18,0.22-2.24,0.59-3.2,1.11c-0.96,0.52-1.75,0.97-2.38,1.36c-0.63,0.39-1.13,0.74-1.49,1.06
			c-0.78,0.68-1.51,1.68-2.2,3.01c-1.15,2.46-1.13,5.06,0.06,7.81c0.44,1.06,0.95,1.91,1.51,2.55c0.52,0.59,1.13,1.15,1.82,1.67
			c0.7,0.52,1.43,1.03,2.19,1.53c0.76,0.5,1.59,0.95,2.49,1.33c0.48,0.21,0.96,0.39,1.44,0.57c-12.91,11.79-24.83,24.69-35.59,38.54
			l4.74,3.68c1.92-2.47,3.88-4.92,5.88-7.33l13.13,10.61c0.62,0.5,1.12,1.08,1.52,1.75c0.4,0.67,0.86,1.89,1.4,3.64
			c0.33,1.05,0.49,1.98,0.5,2.8c0,0.82-0.04,1.82-0.13,2.99c-0.19,1.88-0.29,2.92-0.31,3.14c-0.26,1.58-0.91,3.01-1.94,4.29
			c-0.34,0.42-0.82,1.02-1.43,1.77c-0.5,0.61-0.94,1.04-1.32,1.27c-0.38,0.24-0.93,0.4-1.63,0.5c-0.7,0.1-1.28,0.06-1.73-0.11
			c-0.45-0.17-0.98-0.5-1.59-1c-0.61-0.49-1.21-1.04-1.79-1.62c-0.58-0.58-1-1.45-1.25-2.58c-0.12-0.72-0.16-1.88-0.11-3.48
			c0.04-1.21,0.22-2.2,0.53-2.97c0.31-0.76,0.86-1.84,1.66-3.22c0.19-0.24,0.43-0.63,0.72-1.18c0.23-0.28,0.48-0.59,0.74-0.92
			c0.19-0.24,0.44-0.54,0.74-0.92c0.3-0.38,0.59-0.73,0.86-1.06l-6.01,0.64l-1.83,2.27c-0.5,0.61-0.83,1.22-1,1.82
			c-0.17,0.6-0.32,1.13-0.45,1.57c-1.37,1.31-3.1,1.91-5.18,1.78c-1.39-0.11-2.55-0.46-3.48-1.05c0.49-0.22,0.99-0.58,1.5-1.07
			c0.51-0.49,1.01-1.04,1.51-1.65c0.08-0.09,0.29-0.41,0.64-0.94c0.35-0.53,0.57-1,0.66-1.4c0.23-1.06,0.25-2.02,0.07-2.86
			c-0.18-0.85-0.46-1.48-0.83-1.9c-0.37-0.42-0.72-0.76-1.06-1.03c-0.52-0.42-1.18-0.73-1.96-0.94c-0.78-0.2-1.58-0.28-2.4-0.24
			c-1.85,0.15-3.34,0.93-4.49,2.34c-0.42,0.52-0.7,0.92-0.84,1.19c-1.16,2.02-1.18,4.23-0.06,6.62c0.51,1.12,1.17,2,1.97,2.65
			c0.43,0.34,0.97,0.67,1.63,0.96s1.38,0.59,2.17,0.88c0.79,0.29,1.68,0.4,2.66,0.34c0.6-0.06,1.51-0.22,2.74-0.48
			c1.23-0.26,2.14-0.49,2.75-0.71c0.6-0.21,1.31-0.54,2.13-0.97c-0.21,1.62-0.13,3.21,0.26,4.77c0.6,2.36,1.59,4.25,2.95,5.66
			c0.19,0.15,0.44,0.43,0.74,0.83c0.29,0.23,0.57,0.46,0.85,0.69c1.52,1.23,3.35,1.96,5.5,2.22c2.15,0.25,4.09-0.12,5.85-1.13
			c0.98-0.53,1.77-1.18,2.38-1.93c0.27-0.33,0.6-0.86,0.99-1.6c0.4-0.73,0.79-1.47,1.19-2.2s0.69-1.49,0.88-2.27
			c0.19-0.78,0.4-1.79,0.6-3.02c0.3-1.94,0.24-4.02-0.18-6.23l5.96,4.81l7.22-0.96l-31.21-25.21c3.6-4.2,7.32-8.3,11.15-12.29
			l24.86,25.03l7.4-0.04l-28.58-28.77c3.59-3.62,7.27-7.15,11.04-10.58l23.23,26.57l7.51,0.57l-26.81-30.66
			c8.1-7.13,16.57-13.83,25.37-20.05l3.97,5.53l-8.58,6.15c-0.84,0.6-1.47,1.3-1.91,2.1c-0.44,0.8-0.76,1.72-0.98,2.77
			c-0.44,2.41,0.03,4.57,1.41,6.49c0.74,1.04,1.47,1.84,2.18,2.41c0.71,0.57,1.47,1.15,2.26,1.74c0.8,0.59,1.86,1.11,3.17,1.59
			c0.62,0.23,1.35,0.47,2.21,0.71c0.85,0.25,1.56,0.43,2.1,0.56c1.11,0.18,2.21,0.25,3.31,0.2c1.64-0.13,2.57-0.2,2.79-0.21
			c0.81-0.13,1.56-0.35,2.24-0.66c0.69-0.3,1.38-0.71,2.08-1.21c0.9-0.64,1.7-1.37,2.4-2.17l9.94,3.87l1.05-3.11l-9.51-3.6
			c0.19-0.73,0.24-1.51,0.15-2.33c-0.02-0.43-0.06-1.01-0.12-1.75c-0.06-0.73-0.27-1.34-0.62-1.83c-1.12-1.57-2.47-2.43-4.05-2.6
			c-1.58-0.17-2.96,0.17-4.14,1.02c-0.35,0.25-0.6,0.47-0.76,0.66c-1.55,1.49-1.97,3.09-1.25,4.82c0.25,0.56,0.45,0.94,0.59,1.14
			c0.46,0.64,1.16,1.15,2.1,1.52c-0.58,1.17-1.54,2.22-2.87,3.18c-0.59,0.42-1.22,0.69-1.89,0.8c-0.13,0.02-0.78,0.04-1.93,0.04
			c-1.15,0.01-2.12-0.16-2.88-0.51c-0.77-0.34-1.49-0.85-2.16-1.53c-0.67-0.67-1.09-1.14-1.27-1.38c-0.46-0.64-0.82-1.35-1.08-2.13
			c-0.51-1.65-0.51-3.21-0.01-4.7c0.4-1.11,0.83-1.92,1.28-2.43c0.45-0.51,1.27-1.19,2.46-2.04l9.24-6.63l-6.74-9.39
			c7.12-4.86,14.44-9.42,21.94-13.65l10.68-5.62l1.61,3.06l-9.99,5.25l-1.53,0.81c-0.29,0.22-0.62,0.45-0.98,0.67
			c-0.36,0.23-0.61,0.41-0.74,0.54c-1.12,1.14-1.64,2.3-1.56,3.49c0.07,0.52,0.2,0.96,0.39,1.33c0.45,0.86,1.16,1.48,2.11,1.87
			l7.34,2.62c1.4,0.57,2.82,0.61,4.28,0.12c0.65-0.2,1.29-0.8,1.94-1.79c0.64-0.99,1.17-1.68,1.59-2.07c0.41-0.39,0.84-0.8,1.3-1.25
			c0.45-0.44,0.87-0.76,1.24-0.96c0.54-0.28,1.18-0.42,1.95-0.41c1.55,0.08,2.68,0.79,3.38,2.13c0.62,1.18,0.57,2.51-0.16,3.99
			c-0.31,0.58-0.73,1.31-1.26,2.2c-0.52,0.89-1.12,1.62-1.79,2.17c-0.67,0.56-1.4,1.05-2.21,1.47c-0.32,0.17-0.63,0.33-0.93,0.49
			c-0.3,0.16-0.91,0.41-1.86,0.77c-0.94,0.36-2.13,0.49-3.55,0.38c-1.43-0.11-3.11-0.44-5.05-1c-1.53-0.43-3.42-1.22-5.67-2.37
			c-1.87-0.94-3.05-1.62-3.54-2.04c0.64,0.56,1.57,1.26,2.81,2.12c1.24,0.86,2.45,1.63,3.63,2.31c2.39,1.28,4.2,2.11,5.42,2.49
			c1.64,0.51,3.52,0.77,5.65,0.78c0.04,0,0.07,0,0.1,0l3.56,6.76l-3.06,1.61c-0.54,0.28-0.77,0.61-0.71,0.99
			c0.03,0.33,0.21,0.59,0.53,0.8c0.32,0.21,0.72,0.46,1.22,0.75l6.45,3.08c0.52,0.34,1.08,0.36,1.67,0.05
			c0.54-0.28,0.52-0.96-0.04-2.03l-0.55-1.05l-5.79-11.02c0.36-0.02,0.66-0.04,0.89-0.07c1.41-0.19,2.7-0.67,3.88-1.42
			c0.91-0.48,1.69-1.06,2.37-1.75l8.16,15.51l4.14,1.22l-10.34-19.66C415.91,292.97,416.13,292.29,416.3,291.55z M290.46,365.9
			c-1.12-0.67-1.7-1.68-1.74-3.04c-0.04-1.36,0.37-2.58,1.25-3.67c0.8-0.99,1.79-1.65,2.97-1.99c1.18-0.33,2.2-0.16,3.06,0.54
			c0.91,0.73,1.35,1.68,1.33,2.83c-0.02,1.15-0.42,2.2-1.18,3.14c-0.88,1.09-1.8,1.86-2.77,2.33
			C292.4,366.5,291.43,366.46,290.46,365.9z M331.19,310.16c-0.91-0.15-1.74-0.42-2.48-0.85c-1.16-0.68-2.02-1.34-2.58-1.98
			c-0.24-0.27-0.51-0.66-0.83-1.15c-0.31-0.49-0.48-0.81-0.52-0.94c-1.02-2.17-0.92-4.55,0.28-7.14c0.7-1.5,1.51-2.65,2.42-3.45
			c0.55-0.48,1.33-1.02,2.33-1.62c1.01-0.6,2.26-0.91,3.77-0.94c0.86,0.06,1.71,0.07,2.58,0.04c1.33,0.05,2.63,0.24,3.9,0.58
			c0.75,0.31,1.51,0.57,2.27,0.8c2.13,0.72,4.02,1.59,5.7,2.59C342.26,300.59,336.64,305.27,331.19,310.16z"/>
		<path d="M443.28,245.99l1.81,5.72c0.72-0.23,1.44-0.44,2.16-0.66l10.74-2.42c0.87,2.04,1.7,4.72,2.44,7.79
			c0.57,2.51,0.77,4.65,0.66,6.55c-1.44,0.1-2.92,0.2-4.04,0.46c-2.9,0.65-3.26,3.51-3.04,4.51c0.38,1.69,2.06,3.91,4.46,6.46
			c4.41,4.61,11.49,9.16,20.6,13.58l0.39-0.09l1.68-6.3c-6.67-1.91-12.94-4.28-18.03-7.87c1.47-1.56,2.74-3.62,3.55-6.49
			c5.05,1.19,9.52,1.23,13.12,0.42c1.95-0.44,3.81-1.09,5.53-1.93l3.61,16.82l5.19,0.2l0.33-0.57l-9.16-39.66l20.45-2.51l1.04,16.81
			c-2.37,0.55-3.93,1.18-4.78,1.9c-1.05,1-1.53,1.96-1.47,2.9c0.19,3.15,5.98,8.22,8.42,8.07c1.2-0.07,1.88-0.52,2.62-1.59
			c0.65-0.93,0.84-2.28,0.71-4.32l-0.12-2l16.76-1.04l0.92,17.7l5.09,1.02l0.41-0.51l-2.74-40.6l15.54-0.28l-2.01,40.64l4.91,1.56
			l0.47-0.47l1.74-41.64c0,0,23.35-0.17,50.24,7.57l-1.5,8.67l-22.24-3.86l-0.44,0.46l1.21,4.99c7.03,2.12,8.2,5.75,7.82,7.94
			c-0.87,4.99-5.8,6.66-9.08,6.09c-5.82-1.01-10.31-7.61-13.19-20.64l-3.11,1.04l-0.06,0.35c3.46,16.2,9.52,24.16,17.7,25.58
			c5.17,0.9,10.44-2.2,11.42-7.85c0.5-2.89-0.05-6.46-1.95-10.85l11.03,1.92l-4.59,25.4l4.68,2.16l0.52-0.41l6.79-40.13l3.4,0.59
			c1.63,0.42,3.25,0.85,4.86,1.3l1.59-5.79c-26.55-7.32-54.1-11.02-81.9-11.02C504.63,231.64,473.3,236.47,443.28,245.99z
			 M475.05,262.87c-2.6,0.59-5.56,0.8-8.33,0.42c-0.02-1.91-0.3-3.76-0.73-5.67c-0.72-3.21-1.79-6.52-3.31-10.05l17.64-3.97
			l3.63,16.13C480.9,261.14,477.91,262.23,475.05,262.87z M511.64,256.79l-1.06-17.12l16.94-1.05l1.06,17.12L511.64,256.79z"/>
	</g>
</g>
</svg>
